<?xml version="1.0" standalone="no"?>
<!DOCTYPE svg PUBLIC "-//W3C//DTD SVG 20010904//EN"
 "http://www.w3.org/TR/2001/REC-SVG-20010904/DTD/svg10.dtd">
<svg version="1.0" xmlns="http://www.w3.org/2000/svg"
 width="512.000000pt" height="512.000000pt" viewBox="0 0 512.000000 512.000000"
 preserveAspectRatio="xMidYMid meet">

<g transform="translate(0.000000,512.000000) scale(0.100000,-0.100000)"
fill="#000000" stroke="none">
<path d="M2375 4794 c-108 -11 -262 -38 -367 -65 -756 -187 -1380 -789 -1596
-1539 -68 -235 -87 -373 -86 -635 0 -179 4 -243 22 -345 86 -500 305 -919 658
-1260 272 -263 595 -448 952 -546 223 -61 348 -77 597 -78 242 -1 343 11 559
65 621 155 1161 592 1453 1174 90 178 174 447 210 670 24 153 24 486 0 645
-152 989 -906 1744 -1892 1896 -97 15 -428 26 -510 18z m430 -965 c260 -50
472 -164 666 -358 253 -253 379 -553 379 -905 0 -210 -38 -386 -120 -556 -186
-383 -541 -654 -954 -725 -125 -21 -331 -20 -454 4 -267 52 -477 164 -673 360
-256 256 -379 552 -379 913 0 356 124 654 379 909 193 193 404 307 666 359
131 27 352 26 490 -1z"/>
</g>
</svg>
